<?xml version="1.0" standalone="no"?><!DOCTYPE svg PUBLIC "-//W3C//DTD SVG 1.1//EN" "http://www.w3.org/Graphics/SVG/1.1/DTD/svg11.dtd"><svg height="1024" node-id="1" sillyvg="true" template-height="1024" template-width="1024" version="1.1" viewBox="0 0 1024 1024" width="1024" xmlns="http://www.w3.org/2000/svg" xmlns:xlink="http://www.w3.org/1999/xlink"><defs node-id="116"><linearGradient gradientUnits="userSpaceOnUse" id="linear-gradient" node-id="5" spreadMethod="pad" x1="512.342" x2="512.342" y1="2266.13" y2="666.063"><stop offset="0.919" stop-color="#e6e6e6" stop-opacity="0"></stop><stop offset="1" stop-color="#e6e6e6"></stop></linearGradient><linearGradient gradientUnits="userSpaceOnUse" id="linear-gradient-2" node-id="8" spreadMethod="pad" x1="528.912" x2="388.088" y1="774" y2="612"><stop offset="0" stop-color="#cccccc"></stop><stop offset="1" stop-color="#e6e6e6" stop-opacity="0"></stop></linearGradient><linearGradient gradientUnits="userSpaceOnUse" id="linear-gradient-3" node-id="11" spreadMethod="pad" x1="213.219" x2="251.313" y1="721.704" y2="683.61"><stop offset="0" stop-color="#d7d7d7"></stop><stop offset="0.485" stop-color="#fafafa"></stop><stop offset="1" stop-color="#fafafa"></stop></linearGradient><linearGradient gradientUnits="userSpaceOnUse" id="linear-gradient-4" node-id="15" spreadMethod="pad" x1="724.813" x2="768.656" y1="821.718" y2="777.876"><stop offset="0" stop-color="#cccccc"></stop><stop offset="1" stop-color="#fafafa"></stop></linearGradient><radialGradient cx="329.297" cy="647.578" fx="329.297" fy="647.578" gradientUnits="userSpaceOnUse" id="radial-gradient" node-id="18" r="8.172" rev="19" spreadMethod="pad"><stop offset="0" stop-color="#fafafa"></stop><stop offset="1" stop-color="#e6e6e6"></stop></radialGradient><radialGradient cx="802.297" cy="673.578" fx="802.297" fy="673.578" gradientUnits="userSpaceOnUse" id="radial-gradient-2" node-id="21" r="8.172" rev="18" spreadMethod="pad"><stop offset="0" stop-color="#fafafa"></stop><stop offset="1" stop-color="#e6e6e6"></stop></radialGradient><radialGradient cx="774.844" cy="642.75" fx="774.844" fy="642.75" gradientUnits="userSpaceOnUse" id="radial-gradient-3" node-id="22" r="5.531" rev="17" spreadMethod="pad"><stop offset="0" stop-color="#fafafa"></stop><stop offset="1" stop-color="#e6e6e6"></stop></radialGradient><linearGradient gradientUnits="userSpaceOnUse" id="linear-gradient-5" node-id="23" spreadMethod="pad" x1="513.493" x2="471.007" y1="714.594" y2="544.188"><stop offset="0" stop-color="#999999"></stop><stop offset="1" stop-color="#cccccc"></stop></linearGradient><linearGradient gradientUnits="userSpaceOnUse" id="linear-gradient-6" node-id="26" spreadMethod="pad" x1="440.156" x2="508.594" y1="564.031" y2="495.594"><stop offset="0" stop-color="#cccccc"></stop><stop offset="1" stop-color="#f0f0f0"></stop></linearGradient><linearGradient gradientUnits="userSpaceOnUse" id="linear-gradient-7" node-id="29" spreadMethod="pad" x1="660.988" x2="608.637" y1="754.156" y2="544.188"><stop offset="0" stop-color="#999999"></stop><stop offset="1" stop-color="#cccccc"></stop></linearGradient><linearGradient gradientUnits="userSpaceOnUse" id="linear-gradient-8" node-id="30" spreadMethod="pad" x1="479.188" x2="649.782" y1="774.219" y2="603.625"><stop offset="0" stop-color="#b3b3b3"></stop><stop offset="1" stop-color="#e6e6e6"></stop></linearGradient><linearGradient gradientUnits="userSpaceOnUse" id="linear-gradient-9" node-id="33" spreadMethod="pad" x1="447.121" x2="394.661" y1="774.219" y2="563.813"><stop offset="0" stop-color="#999999"></stop><stop offset="1" stop-color="#cccccc"></stop></linearGradient><linearGradient gradientUnits="userSpaceOnUse" id="linear-gradient-10" node-id="34" spreadMethod="pad" x1="494" x2="628" y1="597" y2="463"><stop offset="0" stop-color="#cccccc"></stop><stop offset="1" stop-color="#f0f0f0"></stop></linearGradient><linearGradient gradientUnits="userSpaceOnUse" id="linear-gradient-11" node-id="35" spreadMethod="pad" x1="610.485" x2="697.298" y1="604.938" y2="518.125"><stop offset="0" stop-color="#cccccc"></stop><stop offset="1" stop-color="#ffffff"></stop></linearGradient><linearGradient gradientUnits="userSpaceOnUse" id="linear-gradient-12" node-id="38" spreadMethod="pad" x1="457.438" x2="353.469" y1="619.25" y2="619.25"><stop offset="0" stop-color="#e6e6e6" stop-opacity="0"></stop><stop offset="1" stop-color="#e6e6e6"></stop></linearGradient><linearGradient gradientUnits="userSpaceOnUse" id="linear-gradient-14" node-id="41" spreadMethod="pad" x1="542.734" x2="615.672" y1="674.25" y2="601.313"><stop offset="0" stop-color="#cccccc"></stop><stop offset="1" stop-color="#f0f0f0"></stop></linearGradient><linearGradient gradientUnits="userSpaceOnUse" id="linear-gradient-15" node-id="42" spreadMethod="pad" x1="627.933" x2="685.192" y1="358.938" y2="422.531"><stop offset="0.4" stop-color="#e6e6e6" stop-opacity="0.4"></stop><stop offset="0.443" stop-color="#ffffff"></stop><stop offset="0.6" stop-color="#cccccc"></stop></linearGradient><linearGradient gradientUnits="userSpaceOnUse" id="linear-gradient-16" node-id="46" spreadMethod="pad" x1="618.547" x2="681.547" y1="422.531" y2="359.531"><stop offset="0" stop-color="#e6e6e6"></stop><stop offset="0.761" stop-color="#ffffff"></stop><stop offset="1" stop-color="#f0f0f0"></stop></linearGradient><linearGradient gradientUnits="userSpaceOnUse" id="linear-gradient-17" node-id="50" spreadMethod="pad" x1="625" x2="697" y1="441.5" y2="369.5"><stop offset="0" stop-color="#cccccc"></stop><stop offset="0.761" stop-color="#ffffff"></stop><stop offset="1" stop-color="#f0f0f0"></stop></linearGradient><linearGradient gradientUnits="userSpaceOnUse" id="linear-gradient-18" node-id="54" spreadMethod="pad" x1="627.681" x2="692.257" y1="361.438" y2="433.156"><stop offset="0.4" stop-color="#e6e6e6" stop-opacity="0.4"></stop><stop offset="0.443" stop-color="#ffffff"></stop><stop offset="0.6" stop-color="#cccccc"></stop></linearGradient><linearGradient gradientUnits="userSpaceOnUse" id="linear-gradient-19" node-id="55" spreadMethod="pad" x1="561.414" x2="573.149" y1="735.438" y2="688.375"><stop offset="0" stop-color="#cccccc"></stop><stop offset="1" stop-color="#ffffff"></stop></linearGradient><linearGradient gradientUnits="userSpaceOnUse" id="linear-gradient-20" node-id="56" spreadMethod="pad" x1="405" x2="440" y1="485.875" y2="450.875"><stop offset="0" stop-color="#cccccc"></stop><stop offset="1" stop-color="#ffffff" stop-opacity="0.702"></stop></linearGradient><linearGradient gradientUnits="userSpaceOnUse" id="linear-gradient-21" node-id="59" spreadMethod="pad" x1="404.61" x2="441.86" y1="486.906" y2="449.656"><stop offset="0" stop-color="#cccccc"></stop><stop offset="0.495" stop-color="#cccccc" stop-opacity="0.702"></stop><stop offset="0.498" stop-color="#cccccc"></stop><stop offset="1" stop-color="#ffffff" stop-opacity="0.302"></stop></linearGradient></defs><path d="M 512.33 666.07 C 954.16 666.07 1312.33 1024.25 1312.33 1466.10 C 1312.33 1907.95 954.16 2266.12 512.33 2266.12 C 70.50 2266.12 -287.67 1907.94 -287.67 1466.10 C -287.67 1024.26 70.50 666.07 512.33 666.07 Z" fill="url(#linear-gradient)" fill-rule="evenodd" id="椭圆_1" node-id="65" stroke="none" target-height="1600.05" target-width="1600" target-x="-287.67" target-y="666.07"></path><g node-id="269"><path d="M 272.00 694.00 L 514.00 612.00 L 645.00 731.00 L 457.00 774.00 Z" fill="url(#linear-gradient-2)" fill-rule="evenodd" group-id="1" id="阴影" node-id="67" stroke="none" target-height="162" target-width="373" target-x="272" target-y="612"></path><path d="M 232.39 723.53 C 233.72 723.53 234.79 724.61 234.79 725.93 L 234.79 743.66 C 234.79 744.98 233.72 746.06 232.39 746.06 C 231.07 746.06 229.99 744.98 229.99 743.66 L 229.99 725.93 C 229.99 724.61 231.07 723.53 232.39 723.53 Z" fill="#b3b3b3" fill-rule="evenodd" group-id="1" id="圆角矩形_1" node-id="68" stroke="none" target-height="22.525024" target-width="4.800003" target-x="229.991" target-y="723.534"></path><path d="M 232.25 676.56 C 242.59 676.56 249.32 691.97 250.96 705.05 C 252.57 717.99 248.58 728.75 232.25 728.75 C 215.38 728.75 212.04 718.01 213.56 705.05 C 215.19 690.99 221.93 676.56 232.25 676.56 Z" fill="url(#linear-gradient-3)" fill-rule="evenodd" group-id="1" id="椭圆_7" node-id="69" stroke="none" target-height="52.18695" target-width="40.531998" target-x="212.042" target-y="676.559"></path><path d="M 745.85 826.00 L 746.79 826.00 C 748.12 826.00 749.19 827.07 749.19 828.40 L 749.19 850.64 C 749.19 851.96 748.12 853.04 746.79 853.04 L 745.85 853.04 C 744.53 853.04 743.45 851.96 743.45 850.64 L 743.45 828.40 C 743.45 827.07 744.53 826.00 745.85 826.00 Z" fill="#b3b3b3" fill-rule="evenodd" group-id="1" id="圆角矩形_1-2" node-id="70" stroke="none" target-height="27.038025" target-width="5.737976" target-x="743.453" target-y="826"></path><path d="M 746.73 830.30 C 727.29 830.30 723.45 820.97 725.19 809.71 C 725.73 806.10 726.84 802.60 728.48 799.34 C 727.63 796.36 727.63 793.21 728.48 790.23 C 731.36 777.90 740.53 769.32 746.83 769.32 C 753.39 769.32 762.30 778.42 765.19 790.23 C 766.07 793.26 765.96 796.49 764.85 799.45 C 766.53 802.67 767.68 806.13 768.27 809.71 C 770.13 820.95 765.54 830.30 746.73 830.30 Z" fill="url(#linear-gradient-4)" fill-rule="evenodd" group-id="1" id="椭圆_8" node-id="71" stroke="none" target-height="60.981995" target-width="46.683044" target-x="723.449" target-y="769.318"></path><path d="M 328.84 654.56 C 328.27 652.00 326.22 650.02 323.64 649.53 C 320.90 648.90 320.89 648.22 323.61 647.49 C 326.17 646.92 328.15 644.87 328.63 642.29 C 329.27 639.55 329.95 639.54 330.68 642.25 C 331.25 644.82 333.30 646.80 335.88 647.28 C 338.62 647.92 338.63 648.60 335.91 649.33 C 333.35 649.90 331.37 651.94 330.89 654.53 C 330.25 657.27 329.57 657.28 328.84 654.56 Z" fill="#cccccc" fill-rule="evenodd" group-id="1" id="多边形_2" node-id="72" stroke="none" target-height="17.738342" target-width="17.738342" target-x="320.89166" target-y="639.539"></path><path d="M 328.38 653.73 C 327.81 651.16 325.77 649.19 323.18 648.70 C 320.44 648.07 320.43 647.39 323.15 646.66 C 325.71 646.09 327.69 644.04 328.18 641.46 C 328.81 638.72 329.49 638.71 330.22 641.42 C 330.79 643.99 332.84 645.97 335.42 646.45 C 338.16 647.09 338.17 647.77 335.46 648.50 C 332.89 649.07 330.91 651.11 330.43 653.70 C 329.79 656.43 329.11 656.44 328.38 653.73 Z" fill="url(#radial-gradient)" fill-rule="evenodd" group-id="1" id="多边形_2-2" node-id="73" stroke="none" target-height="17.73468" target-width="17.738647" target-x="320.432" target-y="638.7087"></path><path d="M 801.84 680.56 C 801.27 678.00 799.22 676.02 796.64 675.53 C 793.90 674.90 793.89 674.22 796.61 673.49 C 799.17 672.92 801.15 670.87 801.63 668.29 C 802.27 665.55 802.95 665.54 803.68 668.25 C 804.25 670.82 806.30 672.80 808.88 673.28 C 811.62 673.92 811.63 674.60 808.91 675.33 C 806.35 675.90 804.37 677.94 803.89 680.53 C 803.25 683.27 802.57 683.28 801.84 680.56 Z" fill="#cccccc" fill-rule="evenodd" group-id="1" id="多边形_2-3" node-id="74" stroke="none" target-height="17.738342" target-width="17.73767" target-x="793.89166" target-y="665.539"></path><path d="M 801.38 679.73 C 800.81 677.16 798.77 675.19 796.18 674.70 C 793.44 674.07 793.43 673.39 796.15 672.66 C 798.71 672.09 800.69 670.04 801.17 667.46 C 801.81 664.72 802.49 664.71 803.22 667.42 C 803.79 669.99 805.84 671.97 808.42 672.45 C 811.16 673.09 811.17 673.77 808.46 674.50 C 805.89 675.07 803.91 677.11 803.43 679.70 C 802.79 682.43 802.11 682.44 801.38 679.73 Z" fill="url(#radial-gradient-2)" fill-rule="evenodd" group-id="1" id="多边形_2-4" node-id="75" stroke="none" target-height="17.73468" target-width="17.737976" target-x="793.4327" target-y="664.7087"></path><path d="M 774.21 646.90 C 773.82 645.17 772.44 643.83 770.69 643.50 C 768.84 643.07 768.83 642.61 770.67 642.12 C 772.40 641.73 773.74 640.35 774.07 638.60 C 774.50 636.75 774.96 636.74 775.45 638.58 C 775.84 640.31 777.22 641.65 778.97 641.98 C 780.82 642.41 780.83 642.87 778.99 643.36 C 777.26 643.75 775.92 645.13 775.59 646.88 C 775.16 648.73 774.70 648.74 774.21 646.90 Z" fill="url(#radial-gradient-3)" fill-rule="evenodd" group-id="1" id="多边形_2-5" node-id="76" stroke="none" target-height="11.99762" target-width="11.996338" target-x="768.8333" target-y="636.74036"></path><path d="M 385.60 714.60 L 385.76 563.94 L 598.90 544.17 L 598.74 694.83 Z" fill="url(#linear-gradient-5)" fill-rule="evenodd" group-id="1" id="形状_1" node-id="77" stroke="none" target-height="170.42596" target-width="213.30002" target-x="385.6" target-y="544.174"></path><path d="M 385.47 564.03 L 600.24 544.65 L 564.07 495.58 L 348.51 513.22 Z" fill="url(#linear-gradient-6)" fill-rule="evenodd" group-id="1" id="形状_3" node-id="78" stroke="none" target-height="68.45001" target-width="251.73001" target-x="348.507" target-y="495.581"></path><path d="M 598.74 694.83 L 598.90 544.17 L 670.88 603.49 L 670.72 754.15 Z" fill="url(#linear-gradient-7)" fill-rule="evenodd" group-id="1" id="形状_1-2" node-id="79" stroke="none" target-height="209.97699" target-width="72.13098" target-x="598.744" target-y="544.174"></path><path d="M 457.06 774.21 L 457.22 623.55 L 671.91 603.64 L 671.75 754.30 Z" fill="url(#linear-gradient-8)" fill-rule="evenodd" group-id="1" id="形状_1-3" node-id="80" stroke="none" target-height="170.57196" target-width="214.84903" target-x="457.064" target-y="603.637"></path><path d="M 384.57 714.46 L 384.72 563.80 L 457.22 623.55 L 457.07 774.21 Z" fill="url(#linear-gradient-9)" fill-rule="evenodd" group-id="1" id="形状_1-4" node-id="81" stroke="none" target-height="210.40802" target-width="72.65799" target-x="384.566" target-y="563.8"></path><path d="M 494.00 640.00 C 494.00 640.00 569.36 581.60 536.00 557.00 C 502.64 532.40 497.11 558.66 499.00 571.00 C 500.89 583.34 552.85 583.47 553.00 545.00 C 553.20 495.02 628.00 420.00 628.00 420.00" fill="none" group-id="1" id="形状_4" node-id="82" stroke="url(#linear-gradient-10)" stroke-dasharray="12 6" stroke-linecap="butt" stroke-width="3" target-height="220" target-width="134" target-x="494" target-y="420"></path><path d="M 670.27 604.94 L 598.23 545.04 L 636.71 518.13 L 709.57 576.29 Z" fill="url(#linear-gradient-11)" fill-rule="evenodd" group-id="1" id="形状_3-2" node-id="83" stroke="none" target-height="86.80902" target-width="111.336" target-x="598.234" target-y="518.13"></path><path d="M 425.50 674.38 L 353.46 614.48 L 384.57 564.14 L 457.43 622.30 Z" fill="url(#linear-gradient-12)" fill-rule="evenodd" group-id="1" id="形状_3-3" node-id="84" stroke="none" target-height="110.24701" target-width="103.968994" target-x="353.458" target-y="564.136"></path><path d="M 425.50 674.38 L 353.46 614.48 L 384.57 564.14 L 457.43 622.30 Z" fill="url(#linear-gradient-12)" fill-rule="evenodd" group-id="1" id="形状_3-4" node-id="85" stroke="none" target-height="110.24701" target-width="103.968994" target-x="353.458" target-y="564.136"></path><path d="M 487.92 674.24 L 702.40 651.66 L 671.30 601.32 L 455.99 622.15 Z" fill="url(#linear-gradient-14)" fill-rule="evenodd" group-id="1" id="形状_3-5" node-id="86" stroke="none" target-height="72.916016" target-width="246.40903" target-x="455.991" target-y="601.319"></path><path d="M 697.36 358.93 L 627.78 421.44 L 615.75 422.52 Z" fill="#ffffff" fill-rule="evenodd" group-id="1" id="形状_5" node-id="87" stroke="none" target-height="63.592987" target-width="81.61499" target-x="615.748" target-y="358.927"></path><path d="M 697.36 358.93 L 627.78 421.44 L 615.75 422.52 Z" fill="url(#linear-gradient-15)" fill-rule="evenodd" group-id="1" id="形状_5-2" node-id="88" stroke="none" target-height="63.592987" target-width="81.61499" target-x="615.748" target-y="358.927"></path><path d="M 615.75 422.52 L 604.00 413.00 L 696.09 359.54" fill="url(#linear-gradient-16)" fill-rule="evenodd" group-id="1" id="形状_6" node-id="89" stroke="none" target-height="62.97998" target-width="92.08899" target-x="604" target-y="359.54"></path><path d="M 625.00 432.00 L 637.00 450.00 L 697.00 361.00" fill="url(#linear-gradient-17)" fill-rule="evenodd" group-id="1" id="形状_6-2" node-id="90" stroke="none" target-height="89" target-width="72" target-x="625" target-y="361"></path><path d="M 626.98 421.33 L 624.51 433.16 L 695.43 361.43" fill="#ffffff" fill-rule="evenodd" group-id="1" id="形状_5-3" node-id="91" stroke="none" target-height="71.734985" target-width="70.91803" target-x="624.509" target-y="361.428"></path><path d="M 626.98 421.33 L 624.51 433.16 L 695.43 361.43" fill="url(#linear-gradient-18)" fill-rule="evenodd" group-id="1" id="形状_5-4" node-id="92" stroke="none" target-height="71.734985" target-width="70.91803" target-x="624.509" target-y="361.428"></path><path d="M 494.81 735.44 L 516.11 733.34 L 516.11 726.73 L 502.71 728.05 L 502.71 721.08 L 513.68 720.00 L 513.68 713.39 L 502.71 714.47 L 502.71 708.38 L 515.62 707.11 L 515.62 700.59 L 494.82 702.64 L 494.82 735.44 Z M 521.00 732.86 L 528.05 732.17 L 528.05 720.93 C 527.92 717.15 527.58 713.39 527.04 709.65 L 527.22 709.64 L 529.86 717.22 L 534.31 728.78 L 538.63 728.35 L 543.04 715.93 L 545.77 707.81 L 545.95 707.79 C 545.42 711.60 545.08 715.43 544.94 719.27 L 544.94 730.51 L 552.12 729.80 L 552.12 697.00 L 543.57 697.84 L 538.55 712.49 C 537.93 714.44 537.40 716.57 536.74 718.66 L 536.52 718.68 C 535.90 716.71 535.37 714.70 534.71 712.86 L 529.51 699.23 L 521.00 700.06 L 521.00 732.86 Z M 558.21 729.20 L 566.10 728.43 L 566.10 717.54 L 569.94 717.16 C 576.86 716.48 582.90 712.45 582.90 704.64 C 582.90 696.53 576.95 694.56 569.72 695.27 L 558.22 696.40 L 558.22 729.20 Z M 566.10 711.32 L 566.10 701.84 L 569.32 701.53 C 573.11 701.15 575.23 702.09 575.23 705.40 C 575.23 708.62 573.38 710.61 569.54 710.98 Z M 594.00 725.68 L 601.89 724.90 L 601.89 698.63 L 610.80 697.75 L 610.80 691.23 L 585.14 693.75 L 585.14 700.28 L 594.00 699.41 L 594.00 725.68 Z M 621.99 722.93 L 629.84 722.16 L 629.84 710.56 L 639.76 688.38 L 631.51 689.19 L 628.78 696.74 C 627.86 699.29 626.97 701.67 626.05 704.32 L 625.87 704.34 C 624.95 701.87 624.11 699.66 623.23 697.28 L 620.49 690.28 L 612.12 691.11 L 621.99 711.34 L 621.99 722.93 Z" fill="url(#linear-gradient-19)" fill-rule="evenodd" group-id="1" id="empty" node-id="93" stroke="none" target-height="47.057983" target-width="144.94302" target-x="494.814" target-y="688.382"></path><path d="M 408.94 457.31 C 403.72 463.70 403.67 472.87 408.83 479.31 C 413.98 485.75 422.93 487.72 430.31 484.03 C 424.76 487.15 417.96 487.01 412.54 483.67 C 407.13 480.32 403.95 474.30 404.26 467.94 C 404.56 461.58 408.30 455.89 414.01 453.08 C 412.06 454.15 410.34 455.59 408.94 457.31 Z" fill="#cccccc" fill-rule="evenodd" group-id="1" id="椭圆_9" node-id="94" stroke="none" target-height="34.641357" target-width="26.6391" target-x="403.6729" target-y="453.079"></path><path d="M 440.00 468.38 C 440.00 478.04 432.16 485.88 422.50 485.88 C 412.84 485.88 405.00 478.04 405.00 468.38 C 405.00 458.71 412.84 450.88 422.50 450.88 C 432.16 450.88 440.00 458.71 440.00 468.38 Z" fill="url(#linear-gradient-20)" fill-rule="nonzero" group-id="1" id="椭圆_9-2" node-id="95" stroke="none" target-height="35" target-width="35" target-x="405" target-y="450.875"></path><path d="M 391.76 451.50 C 389.40 455.92 401.59 467.02 418.98 476.30 C 434.11 484.37 448.19 488.40 453.14 486.39 C 448.95 489.17 434.20 485.15 418.28 476.66 C 400.89 467.39 388.71 456.29 391.07 451.86 C 391.42 451.25 391.98 450.79 392.65 450.56 C 392.28 450.80 391.97 451.12 391.76 451.50 Z" fill="#cccccc" fill-rule="evenodd" group-id="1" id="椭圆_11" node-id="96" stroke="none" target-height="38.60202" target-width="64.43298" target-x="388.708" target-y="450.563"></path><path d="M 418.98 476.29 C 401.59 467.01 389.40 455.91 391.76 451.49 C 394.12 447.07 410.12 451.01 427.51 460.28 C 444.90 469.56 457.08 480.66 454.73 485.08 C 452.37 489.50 436.36 485.56 418.98 476.29 Z M 450.61 482.02 C 452.43 478.60 441.82 469.38 426.91 461.42 C 412.00 453.46 398.42 449.79 396.60 453.21 C 394.77 456.63 405.39 465.85 420.30 473.81 C 435.21 481.77 448.79 485.44 450.61 482.02 Z M 413.96 453.01 L 411.19 454.47 L 411.22 456.22 L 439.86 470.40 L 440.12 465.84 Z" fill="url(#linear-gradient-21)" fill-rule="evenodd" group-id="1" id="形状_15" node-id="97" stroke="none" target-height="42.438995" target-width="67.681" target-x="389.402" target-y="447.066"></path></g><g node-id="270"><path d="M 612.13 676.50 L 613.49 680.03 L 616.75 677.71 L 615.39 674.18 Z" fill="#f8cfad" fill-rule="evenodd" group-id="2" id="形状_12" node-id="99" stroke="none" target-height="5.855957" target-width="4.6170044" target-x="612.131" target-y="674.176"></path><path d="M 629.13 665.50 L 630.49 669.03 L 633.75 666.71 L 632.39 663.18 Z" fill="#f8cfad" fill-rule="evenodd" group-id="2" id="形状_12-2" node-id="100" stroke="none" target-height="5.855957" target-width="4.6170044" target-x="629.131" target-y="663.176"></path><path d="M 617.76 678.18 L 614.60 678.11 C 614.07 679.19 613.72 680.36 613.57 681.56 C 613.31 683.57 612.39 686.56 613.12 686.93 C 614.62 689.59 617.24 686.71 617.24 686.71 C 617.24 686.71 619.42 683.86 619.16 681.45 C 619.06 680.47 617.98 679.58 617.76 678.18 Z" fill="#141a33" fill-rule="evenodd" group-id="2" id="形状_20" node-id="101" stroke="none" target-height="11.47998" target-width="7.03302" target-x="612.391" target-y="678.106"></path><path d="M 633.78 665.86 L 636.80 666.80 C 636.95 668.00 636.91 669.22 636.66 670.40 C 636.26 672.38 636.48 674.57 635.68 674.68 C 633.39 676.71 631.85 673.14 631.85 673.14 C 631.85 673.14 630.38 670.69 631.41 668.49 C 631.82 667.61 633.12 667.10 633.78 665.86 Z" fill="#141a33" fill-rule="evenodd" group-id="2" id="形状_20-2" node-id="102" stroke="none" target-height="10.85199" target-width="6.5753174" target-x="630.377" target-y="665.855"></path><path d="M 599.93 592.53 C 599.93 592.53 610.23 602.29 611.88 600.10 C 613.54 597.90 615.42 596.63 605.13 586.45 Z" fill="#f0c5a8" fill-rule="evenodd" group-id="2" id="形状_3-6" node-id="103" stroke="none" target-height="15.846985" target-width="15.486023" target-x="599.935" target-y="586.448"></path><path d="M 611.30 596.36 C 612.97 595.26 622.80 603.41 625.80 608.13 C 628.80 612.86 613.10 603.77 611.17 601.36 C 609.24 598.94 609.63 597.47 611.30 596.36 Z" fill="#f8cfad" fill-rule="evenodd" group-id="2" id="形状_4-2" node-id="104" stroke="none" target-height="17.605042" target-width="19.55896" target-x="609.241" target-y="595.256"></path><path d="M 621.82 607.99 C 621.82 607.99 623.62 610.54 624.25 609.74 C 624.87 608.95 626.72 608.68 626.70 608.61 C 626.67 608.53 626.80 607.79 627.99 606.27 C 629.17 604.76 624.18 602.64 622.17 605.78 C 621.72 606.42 621.59 607.24 621.82 607.99 Z" fill="#f8cfad" fill-rule="evenodd" group-id="2" id="形状_6-3" node-id="105" stroke="none" target-height="7.893982" target-width="7.583191" target-x="621.5898" target-y="602.643"></path><path d="M 598.00 617.00 C 598.00 617.00 612.97 611.38 615.00 624.00 C 616.21 631.27 616.87 638.63 617.00 646.00 C 617.00 646.00 629.67 657.84 633.00 665.00 C 633.00 665.00 628.25 663.37 629.00 667.00 C 629.00 667.00 610.87 652.35 610.00 648.00 C 609.13 643.65 600.85 629.28 598.00 617.00 Z" fill="#232c57" fill-rule="evenodd" group-id="2" id="形状_19" node-id="106" stroke="none" target-height="55.61798" target-width="35" target-x="598" target-y="611.382"></path><path d="M 589.00 622.00 C 589.00 622.00 603.97 616.38 606.00 629.00 C 607.21 636.27 607.87 643.63 608.00 651.00 C 608.00 651.00 612.67 668.84 616.00 676.00 C 616.00 676.00 611.25 674.37 612.00 678.00 C 612.00 678.00 601.87 657.35 601.00 653.00 C 600.13 648.65 591.85 634.28 589.00 622.00 Z" fill="#292966" fill-rule="evenodd" group-id="2" id="形状_19-2" node-id="107" stroke="none" target-height="61.61798" target-width="27" target-x="589" target-y="616.382"></path><path d="M 585.63 597.70 C 585.63 597.70 575.33 607.46 573.68 605.26 C 572.02 603.07 570.14 601.80 580.43 591.61 Z" fill="#f0c5a8" fill-rule="evenodd" group-id="2" id="形状_3-7" node-id="108" stroke="none" target-height="15.848022" target-width="15.485962" target-x="570.14" target-y="591.613"></path><path d="M 574.26 601.53 C 572.58 600.42 562.76 608.58 559.76 613.30 C 556.76 618.03 572.46 608.94 574.39 606.53 C 576.32 604.11 575.93 602.63 574.26 601.53 Z" fill="#f8cfad" fill-rule="evenodd" group-id="2" id="形状_4-3" node-id="109" stroke="none" target-height="17.604004" target-width="19.562012" target-x="556.759" target-y="600.424"></path><path d="M 591.72 577.75 C 591.72 577.75 591.11 579.43 593.20 581.47 C 595.28 583.50 589.58 586.77 588.55 584.32 C 587.52 581.86 588.07 581.60 588.07 581.60 Z" fill="#f0c5a8" fill-rule="evenodd" group-id="2" id="形状_9" node-id="110" stroke="none" target-height="9.02301" target-width="7.7609863" target-x="587.52" target-y="577.752"></path><path d="M 583.53 574.12 C 582.69 575.17 584.02 578.00 584.98 579.57 C 585.94 581.15 587.73 582.40 588.34 582.00 C 588.96 581.60 592.43 579.34 592.34 578.00 C 592.26 576.66 592.12 574.60 592.12 574.60 C 592.12 574.60 594.68 572.96 594.27 571.68 C 593.86 570.41 591.35 571.53 591.35 571.53 C 591.33 570.78 591.25 570.04 591.13 569.31 C 590.94 568.38 584.24 567.86 583.30 571.91 C 582.36 575.95 583.86 573.71 583.53 574.12 Z" fill="#f8cfad" fill-rule="evenodd" group-id="2" id="形状_7" node-id="111" stroke="none" target-height="14.544006" target-width="12.317993" target-x="582.36" target-y="567.861"></path><path d="M 584.23 567.76 C 586.33 566.87 591.43 564.07 594.35 568.08 C 597.28 572.08 595.19 572.46 595.34 573.37 C 595.49 574.28 593.45 579.06 594.00 580.00 C 594.55 580.94 590.13 580.80 589.34 578.82 C 588.55 576.84 586.50 578.28 587.12 577.60 C 587.73 576.91 585.82 573.14 584.20 575.44 C 584.34 574.99 584.44 574.53 584.51 574.06 C 584.39 574.25 584.77 570.81 583.84 572.74 C 582.90 574.68 581.74 573.78 580.77 573.50 C 579.80 573.23 578.97 572.39 579.70 571.82 C 579.72 571.80 582.13 568.64 584.23 567.76 Z" fill="#232c57" fill-rule="evenodd" group-id="2" id="形状_8" node-id="112" stroke="none" target-height="16.866028" target-width="18.309998" target-x="578.967" target-y="564.074"></path><path d="M 589.00 585.00 C 586.42 584.53 578.95 585.36 576.00 598.00 C 576.00 598.00 577.90 601.35 581.00 602.00 C 584.10 602.65 587.00 623.00 587.00 623.00 C 587.00 623.00 611.02 634.06 614.00 620.00 C 613.93 606.17 606.00 599.00 606.00 599.00 C 606.00 599.00 611.83 595.80 611.00 593.00 C 610.17 590.20 602.98 582.85 600.00 583.00 C 597.02 583.15 594.00 583.00 594.00 583.00 C 594.00 583.00 591.58 585.47 589.00 585.00 Z" fill="#f6bb07" fill-rule="evenodd" group-id="2" id="形状_18" node-id="113" stroke="none" target-height="51.213013" target-width="38" target-x="576" target-y="582.847"></path><path d="M 563.28 612.58 C 563.28 612.58 562.30 615.55 561.47 614.97 C 560.64 614.39 558.79 614.67 558.79 614.60 C 558.80 614.52 558.46 613.84 556.88 612.74 C 555.30 611.64 559.46 608.16 562.30 610.58 C 562.92 611.06 563.28 611.80 563.28 612.58 Z" fill="#f8cfad" fill-rule="evenodd" group-id="2" id="形状_6-4" node-id="114" stroke="none" target-height="7.387024" target-width="7.9799805" target-x="555.304" target-y="608.159"></path></g></svg>